# xmcd
#
# Track frame offsets: 
#        150
#        17784
#        49540
#        72756
#        89990
#        111326
#        127853
#        141734
#        163770
#        174299
#        190689
#        200336
#        221184
#        249435
#        274004
#        297639
#        319620
#
# Disc length: 4533 seconds
#
# Revision: 0
# Processed by: cddbd v1.5.2PL0 Copyright (c) Steve Scherf et al.
# Submitted via: ExactAudioCopy v0.99pb5
#
DISCID=0811b311
DTITLE=Cuby and Blizzards - Collected - CD2
DYEAR=2010
DGENRE=Blues
TTITLE0=Birk's Works
TTITLE1=Simple Plan
TTITLE2=Seasons Come And Seasons Go
TTITLE3=Backstreet
TTITLE4=Gave You My World
TTITLE5=Sometimes
TTITLE6=Distant Smile
TTITLE7=Perfection
TTITLE8=Pigeon Girl
TTITLE9=Perfect Song
TTITLE10=(There Ain't No Real) Perfection
TTITLE11=Maybe We'll Need Another War
TTITLE12=Bad News
TTITLE13=Geronimo Weeps
TTITLE14=City Soldier
TTITLE15=The Legend
TTITLE16=Can You Tell Me What Love Is
EXTD=
EXTT0=
EXTT1=
EXTT2=
EXTT3=
EXTT4=
EXTT5=
EXTT6=
EXTT7=
EXTT8=
EXTT9=
EXTT10=
EXTT11=
EXTT12=
EXTT13=
EXTT14=
EXTT15=
EXTT16=
PLAYORDER=
